<!DOCTYPE svg PUBLIC "-//W3C//DTD SVG 1.1//EN" "http://www.w3.org/Graphics/SVG/1.1/DTD/svg11.dtd">
<!-- Uploaded to: SVG Repo, www.svgrepo.com, Transformed by: SVG Repo Mixer Tools -->
<svg fill="#ffffff" height="800px" width="800px" version="1.1" id="Layer_1" xmlns="http://www.w3.org/2000/svg" xmlns:xlink="http://www.w3.org/1999/xlink" viewBox="0 0 511.998 511.998" xml:space="preserve" stroke="#ffffff">
<g id="SVGRepo_bgCarrier" stroke-width="0"/>
<g id="SVGRepo_tracerCarrier" stroke-linecap="round" stroke-linejoin="round"/>
<g id="SVGRepo_iconCarrier"> <g> <g> <path d="M262.794,38.453c0-2.569,0.508-3.226,2.638-5.987c3.027-3.923,7.603-9.852,7.603-20.549 c0-6.58-5.336-11.917-11.917-11.917c-6.582,0-11.917,5.336-11.917,11.917c0,2.57-0.506,3.227-2.637,5.988 c-3.028,3.923-7.603,9.852-7.603,20.548c0,10.7,4.575,16.627,7.603,20.552c2.132,2.761,2.637,3.418,2.637,5.989 c0,2.572-0.506,3.228-2.637,5.989c-3.028,3.922-7.604,9.852-7.604,20.55c0,6.58,5.335,11.917,11.917,11.917 c6.582,0,11.917-5.336,11.917-11.917c0-2.572,0.508-3.228,2.638-5.989c3.028-3.923,7.603-9.853,7.603-20.55 c0-10.698-4.575-16.626-7.603-20.55C263.302,41.682,262.794,41.026,262.794,38.453z"/> </g> </g> <g> <g> <path d="M327.514,61.693c0-2.57,0.506-3.226,2.637-5.987c3.028-3.923,7.603-9.852,7.603-20.549c0-6.58-5.336-11.917-11.917-11.917 c-6.58,0-11.917,5.336-11.917,11.917c0,2.57-0.506,3.227-2.637,5.988c-3.028,3.923-7.603,9.852-7.603,20.548 c0,10.7,4.575,16.627,7.602,20.552c2.132,2.761,2.638,3.418,2.638,5.989c0,2.572-0.506,3.228-2.638,5.989 c-3.027,3.923-7.602,9.853-7.602,20.55c0,6.58,5.336,11.917,11.917,11.917c6.58,0,11.917-5.336,11.917-11.917 c0-2.572,0.506-3.228,2.638-5.989c3.027-3.923,7.602-9.853,7.602-20.55c0-10.698-4.575-16.626-7.602-20.549 C328.02,64.922,327.514,64.266,327.514,61.693z"/> </g> </g> <g> <g> <path d="M198.073,61.693c0-2.57,0.506-3.226,2.637-5.987c3.028-3.923,7.603-9.852,7.603-20.549c0-6.58-5.335-11.917-11.917-11.917 s-11.917,5.336-11.917,11.917c0,2.57-0.506,3.227-2.637,5.988c-3.027,3.923-7.602,9.852-7.602,20.548 c0,10.7,4.575,16.627,7.602,20.552c2.132,2.761,2.637,3.418,2.637,5.989c0,2.572-0.506,3.228-2.637,5.989 c-3.027,3.923-7.602,9.853-7.602,20.55c0,6.58,5.335,11.917,11.917,11.917s11.917-5.336,11.917-11.917 c0-2.572,0.506-3.228,2.637-5.989c3.028-3.923,7.602-9.853,7.602-20.55c0-10.698-4.575-16.626-7.602-20.549 C198.58,64.922,198.073,64.266,198.073,61.693z"/> </g> </g> <g> <g> <path d="M488.266,153.727c-2.25-3.01-5.787-4.785-9.547-4.785H33.277c-3.759,0-7.298,1.773-9.547,4.785 c-2.25,3.011-2.947,6.908-1.88,10.512l5.377,18.18c5.817,19.67,17.577,36.556,34.01,48.832 c11.248,8.404,23.949,14.091,37.421,16.847L81.079,449.687c-0.741,1.553-1.168,3.283-1.168,5.118c0,1.105,0.162,2.17,0.443,3.185 l-3.58,41.056c-0.29,3.327,0.829,6.625,3.088,9.086c2.257,2.462,5.444,3.865,8.785,3.865h82.772h169.157h82.771 c3.34,0,6.528-1.403,8.785-3.865c2.257-2.462,3.377-5.759,3.086-9.086l-21.881-250.948c13.473-2.755,26.173-8.443,37.422-16.847 c16.432-12.277,28.193-29.163,34.012-48.832l5.377-18.18C491.214,160.635,490.517,156.738,488.266,153.727z M159.503,488.164 h-57.854l1.87-21.442h55.985V488.164z M328.66,488.164H183.337v-21.442h81.071c6.58,0,11.917-5.336,11.917-11.917 c0-6.58-5.336-11.917-11.917-11.917h-81.071v-19.436H328.66V488.164z M220.645,364.675c0-12.364,18.64-36.766,35.357-54.418 c16.718,17.637,35.35,42.026,35.35,54.418c0,19.156-15.529,34.162-35.353,34.162S220.645,383.832,220.645,364.675z M352.493,488.164v-76.628c0-6.58-5.336-11.917-11.917-11.917h-37.03c7.337-9.656,11.639-21.717,11.639-34.945 c0-29.693-42.44-71.801-50.949-79.94c-4.608-4.408-11.868-4.409-16.476,0c-8.507,8.139-50.949,50.247-50.949,79.94 c0,13.228,4.302,25.289,11.639,34.945h-37.03c-6.582,0-11.917,5.336-11.917,11.917v31.353h-53.907l16.818-192.873h267.167 l20.765,238.149H352.493z M461.916,175.66c-8.798,29.747-36.608,50.522-67.627,50.522h-276.58 c-31.02,0-58.831-20.777-67.627-50.522l-0.852-2.884h413.54L461.916,175.66z"/> </g> </g> <g> <g> <path d="M312.387,452.481c-0.155-0.763-0.38-1.513-0.678-2.228c-0.298-0.727-0.669-1.418-1.096-2.062 c-0.441-0.655-0.941-1.263-1.49-1.811s-1.157-1.049-1.813-1.478c-0.644-0.428-1.335-0.798-2.05-1.096 c-0.727-0.298-1.478-0.523-2.228-0.679c-1.537-0.31-3.122-0.31-4.659,0c-0.763,0.156-1.513,0.381-2.228,0.679 c-0.726,0.298-1.417,0.669-2.06,1.096c-0.655,0.429-1.264,0.93-1.813,1.478s-1.049,1.156-1.476,1.811 c-0.429,0.643-0.798,1.335-1.096,2.062c-0.298,0.715-0.524,1.466-0.679,2.228c-0.155,0.763-0.238,1.549-0.238,2.324 c0,0.773,0.083,1.561,0.238,2.336c0.155,0.751,0.381,1.502,0.679,2.228c0.298,0.715,0.667,1.406,1.096,2.05 c0.428,0.655,0.928,1.263,1.476,1.811s1.157,1.049,1.813,1.478c0.643,0.429,1.335,0.798,2.06,1.096 c0.716,0.298,1.466,0.536,2.228,0.679c0.764,0.155,1.549,0.238,2.324,0.238c0.787,0,1.561-0.083,2.336-0.238 c0.751-0.155,1.502-0.381,2.228-0.679c0.715-0.298,1.406-0.667,2.05-1.096c0.655-0.429,1.264-0.93,1.813-1.478 s1.049-1.156,1.49-1.811c0.428-0.644,0.798-1.335,1.096-2.05c0.298-0.727,0.523-1.478,0.678-2.228 c0.156-0.775,0.226-1.562,0.226-2.336C312.613,454.03,312.542,453.242,312.387,452.481z"/> </g> </g> </g>
</svg>